<svg xmlns="http://www.w3.org/2000/svg" xmlns:xlink="http://www.w3.org/1999/xlink" version="1.1" id="Layer_1" x="0px" y="0px" width="100px" height="100px" viewBox="14 14 100 100" enable-background="new 14 14 100 100" xml:space="preserve">
<g id="Layer_1_1_" display="none">
	<path display="inline" fill="#000000" d="M138,92.061V20.045L94.625,10.43L59.471,24.991L18,15.797v72.014L59.448,97l35.154-14.563   L138,92.061z M94.234,78.262L59.083,92.822L22,84.602V20.782l37.837,8.388L94.99,14.608L134,23.256v63.82L94.234,78.262z"/>
	<circle display="inline" fill="#000000" cx="82" cy="26" r="10"/>
	<rect x="80" y="24" display="inline" fill="#000000" width="4" height="40"/>
	<path display="inline" fill="#000000" d="M95.723,28.776c-0.271,1.346-0.736,2.62-1.363,3.795L120,38.256v63.82l-39.766-8.814   l-35.152,14.562L8,99.602V35.782l37.837,8.388l24.651-10.211c-0.758-1.094-1.36-2.301-1.784-3.59l-23.233,9.624L4,30.797v72.014   L45.448,112l35.154-14.563L124,107.061V35.045L95.723,28.776z"/>
	<polygon display="inline" fill="#000000" points="50,91.215 50,55.214 48.103,56 46,55.129 46,91.129 48.104,92  "/>
	<polygon display="inline" fill="#000000" points="78,43.914 78,79.915 79.896,79.129 82,80 82,44 79.896,43.129  "/>
	<path display="inline" fill="#000000" d="M64,8c-5.523,0-10,4.477-10,10s4.477,10,10,10c5.521,0,10-4.477,10-10S69.521,8,64,8z    M64,24c-3.313,0-6-2.687-6-6s2.687-6,6-6c3.313,0,6,2.687,6,6S67.313,24,64,24z"/>
	<path display="inline" fill="#000000" d="M62,24v36c0,1.104,0.896,2,2,2c1.104,0,2-0.896,2-2V24H62z"/>
	<polygon display="inline" fill="#000000" points="79.926,32.116 70,36.228 70,40.557 79.926,36.446 108,48.075 108,96.425    79.926,84.796 48.104,97.979 20,86.337 20,37.986 48.103,49.627 58,45.528 58,41.198 48.104,45.298 16,32 16,89.009    48.103,102.309 79.926,89.125 112,102.411 112,45.402  "/>
</g>
<g id="Layer_2" display="none">
	<path display="inline" fill="#000000" d="M64,44c-8.836,0-16,7.164-16,16s7.164,16,16,16c8.837,0,16-7.164,16-16S72.837,44,64,44z    M64,72c-6.627,0-12-5.373-12-12s5.373-12,12-12s12,5.373,12,12S70.627,72,64,72z"/>
	<path display="inline" fill="#000000" d="M84,80H44c-6.627,0-12,5.373-12,12v4h4v-4c0-4.418,3.582-8,8-8h8.926h22.148H84   c4.418,0,8,3.582,8,8v4h4v-4C96,85.373,90.627,80,84,80z"/>
	<path display="inline" fill="#000000" d="M32,32c-6.627,0-12,5.373-12,12s5.373,12,12,12s12-5.373,12-12S38.627,32,32,32z M32,52   c-4.418,0-8-3.582-8-8s3.582-8,8-8s8,3.582,8,8S36.418,52,32,52z"/>
	<path display="inline" fill="#000000" d="M96,32c-6.627,0-12,5.373-12,12s5.373,12,12,12s12-5.373,12-12S102.627,32,96,32z M96,52   c-4.418,0-8-3.582-8-8s3.582-8,8-8s8,3.582,8,8S100.418,52,96,52z"/>
	<path display="inline" fill="#000000" d="M16,60c-4.418,0-8,3.582-8,8v4h4v-4c0-2.209,1.791-4,4-4h6.921H44v-4H16z"/>
	<path display="inline" fill="#000000" d="M112,60H84v4h21.079H112c2.209,0,4,1.791,4,4v4h4v-4C120,63.582,116.418,60,112,60z"/>
</g>
<g id="Layer_3">
	<path d="M32,72c-4.418,0-8,3.582-8,8s3.582,8,8,8s8-3.582,8-8S36.418,72,32,72z M32,84c-2.209,0-4-1.791-4-4s1.791-4,4-4   s4,1.791,4,4S34.209,84,32,84z"/>
	<path d="M96,56c-4.418,0-8,3.582-8,8s3.582,8,8,8s8-3.582,8-8S100.418,56,96,56z M96,68c-2.209,0-4-1.791-4-4s1.791-4,4-4   s4,1.791,4,4S98.209,68,96,68z"/>
	<path d="M64,40c-4.418,0-8,3.582-8,8s3.582,8,8,8s8-3.582,8-8S68.418,40,64,40z M64,52c-2.209,0-4-1.791-4-4s1.791-4,4-4   s4,1.791,4,4S66.209,52,64,52z"/>
	<g>
		<path d="M64,36c0.684,0,1.35,0.07,2,0.18V32h-4v4.18C62.652,36.07,63.317,36,64,36z"/>
		<path d="M64,60c-0.683,0-1.348-0.07-2-0.18V96h4V59.82C65.35,59.93,64.684,60,64,60z"/>
	</g>
	<g>
		<path d="M96,52c0.684,0,1.35,0.07,2,0.18V32h-4v20.18C94.65,52.07,95.316,52,96,52z"/>
		<path d="M96,76c-0.684,0-1.35-0.07-2-0.18V96h4V75.82C97.35,75.93,96.684,76,96,76z"/>
	</g>
	<g>
		<path d="M32,68c0.683,0,1.348,0.07,2,0.18V32h-4v36.18C30.652,68.07,31.317,68,32,68z"/>
		<path d="M32,92c-0.683,0-1.348-0.07-2-0.18V96h4v-4.18C33.348,91.93,32.683,92,32,92z"/>
	</g>
</g>
<g id="Layer_4" display="none">
	<text transform="matrix(1 0 0 1 20.0005 84)" display="inline" fill="#000000" font-family="'Roboto-Light'" font-size="72">On</text>
	<rect x="48" y="92" display="inline" fill="#000000" width="36" height="8"/>
</g>
</svg>